<?xml version="1.0" standalone="no"?><svg xmlns="http://www.w3.org/2000/svg" viewBox="0 0 1440 320"><path fill="#f3f4f5" fill-opacity="1" d="M0,0L24,5.3C48,11,96,21,144,48C192,75,240,117,288,117.3C336,117,384,75,432,80C480,85,528,139,576,144C624,149,672,107,720,80C768,53,816,43,864,80C912,117,960,203,1008,234.7C1056,267,1104,245,1152,224C1200,203,1248,181,1296,192C1344,203,1392,245,1416,266.7L1440,288L1440,0L1416,0C1392,0,1344,0,1296,0C1248,0,1200,0,1152,0C1104,0,1056,0,1008,0C960,0,912,0,864,0C816,0,768,0,720,0C672,0,624,0,576,0C528,0,480,0,432,0C384,0,336,0,288,0C240,0,192,0,144,0C96,0,48,0,24,0L0,0Z"></path></svg>