<?xml version="1.0" standalone="no"?><svg xmlns="http://www.w3.org/2000/svg" viewBox="0 0 1440 320"><path fill="#000000" fill-opacity="1" d="M0,64L26.7,96C53.3,128,107,192,160,208C213.3,224,267,192,320,192C373.3,192,427,224,480,213.3C533.3,203,587,149,640,138.7C693.3,128,747,160,800,192C853.3,224,907,256,960,272C1013.3,288,1067,288,1120,250.7C1173.3,213,1227,139,1280,117.3C1333.3,96,1387,128,1413,144L1440,160L1440,0L1413.3,0C1386.7,0,1333,0,1280,0C1226.7,0,1173,0,1120,0C1066.7,0,1013,0,960,0C906.7,0,853,0,800,0C746.7,0,693,0,640,0C586.7,0,533,0,480,0C426.7,0,373,0,320,0C266.7,0,213,0,160,0C106.7,0,53,0,27,0L0,0Z"></path></svg>